<?xml version="1.0" standalone="no"?>
<!DOCTYPE svg PUBLIC "-//W3C//DTD SVG 20010904//EN"
 "http://www.w3.org/TR/2001/REC-SVG-20010904/DTD/svg10.dtd">
<svg version="1.0" xmlns="http://www.w3.org/2000/svg"
 width="512.000000pt" height="512.000000pt" viewBox="0 0 512.000000 512.000000"
 preserveAspectRatio="xMidYMid meet">

<g transform="translate(0.000000,512.000000) scale(0.100000,-0.100000)"
fill="#000000" stroke="none">
<path d="M923 3618 c-30 -29 -59 -63 -64 -75 -19 -51 36 -111 88 -98 15 3 51
30 80 59 44 44 53 59 53 89 0 27 -7 41 -26 56 -42 33 -69 27 -131 -31z"/>
<path d="M1103 3105 c-24 -17 -43 -71 -43 -121 0 -110 81 -219 185 -250 90
-25 182 -6 204 43 16 35 14 49 -13 80 -22 25 -28 27 -90 25 -62 -3 -69 -1 -97
27 -28 28 -30 35 -28 97 2 62 0 69 -25 91 -31 27 -62 29 -93 8z"/>
<path d="M1855 2679 c-53 -51 -65 -68 -65 -94 0 -40 36 -75 76 -75 45 0 154
107 154 151 0 26 -40 67 -72 75 -24 5 -36 -2 -93 -57z"/>
<path d="M3384 2272 c-55 -48 -180 -154 -277 -237 -97 -82 -177 -153 -177
-157 0 -3 196 -340 435 -747 239 -408 435 -746 435 -751 0 -6 35 -46 78 -89
138 -139 293 -209 483 -219 135 -6 231 14 354 73 155 76 255 175 330 330 56
116 69 176 69 305 0 121 -19 201 -70 305 -69 143 -82 153 -833 729 -385 295
-706 538 -713 541 -7 2 -58 -35 -114 -83z m1086 -1354 c143 -73 109 -274 -51
-303 -71 -13 -160 46 -180 119 -15 54 -4 100 34 143 57 65 122 79 197 41z"/>
</g>
</svg>
